<?xml version="1.0" encoding="UTF-8" standalone="no"?>
<svg width="154px" height="41px" viewBox="0 0 154 41" version="1.1" xmlns="http://www.w3.org/2000/svg" xmlns:xlink="http://www.w3.org/1999/xlink">
    <!-- Generator: sketchtool 3.7 (28169) - http://www.bohemiancoding.com/sketch -->
    <title>0021B52E-0A20-42F6-9FBD-18210E123FDB</title>
    <desc>Created with sketchtool.</desc>
    <defs>
        <polygon id="path-1" points="40.3990769 7.18723326e-15 0.00025287829 7.18723326e-15 0.00025287829 40.4602734 40.3990769 40.4602734 40.3990769 0"></polygon>
    </defs>
    <g id="Page-1" stroke="none" stroke-width="1" fill="none" fill-rule="evenodd">
        <g id="Homepage-April-14th-update" transform="translate(-136.000000, -50.000000)">
            <g id="TB-logo" transform="translate(136.000000, 50.000000)">
                <g id="Group-3">
                    <mask id="mask-2" fill="white">
                        <use xlink:href="#path-1"></use>
                    </mask>
                    <g id="Clip-2"></g>
                    <path d="M20.324081,23.4643236 C18.4947595,23.4643236 17.0118812,21.9814453 17.0118812,20.1521238 C17.0118812,18.3228022 18.4947595,16.8399239 20.324081,16.8399239 C22.1534025,16.8399239 23.6362808,18.3228022 23.6362808,20.1521238 C23.6362808,21.9814453 22.1534025,23.4643236 20.324081,23.4643236 M20.1485835,-0.000252878289 L0.00025287829,-0.000252878289 L0.00025287829,20.2300103 C0.00025287829,31.4031846 9.01789268,40.4602734 20.1895498,40.4602734 C31.3637356,40.4602734 40.3990769,31.4031846 40.3990769,20.2300103 C40.3990769,9.05734169 31.3227693,-0.000252878289 20.1485835,-0.000252878289" id="Fill-1" fill="#FFFFFF" mask="url(#mask-2)"></path>
                </g>
                <path d="M124.153833,17.6726016 C123.485223,16.7693203 122.583965,16.3050358 121.47484,16.3050358 C120.37128,16.3050358 119.467493,16.7693203 118.769549,17.6726016 C118.098915,18.5758828 117.750955,19.6824782 117.750955,21.0202044 C117.750955,23.6986912 119.233833,25.4744025 121.47484,25.4744025 C123.716859,25.4744025 125.202266,23.6986912 125.202266,21.0202044 C125.202266,19.6824782 124.852789,18.5758828 124.153833,17.6726016 M126.482842,26.3468326 C125.171415,27.7740777 123.485223,28.5033787 121.47484,28.5033787 C119.467493,28.5033787 117.779277,27.7740777 116.439528,26.3468326 C115.129618,24.9216106 114.461514,23.0877373 114.461514,20.9069149 C114.461514,18.6942299 115.129618,16.8588392 116.439528,15.4310884 C117.779277,13.9745095 119.467493,13.2497603 121.47484,13.2497603 C123.485223,13.2497603 125.171415,13.9745095 126.482842,15.4310884 C127.823603,16.8588392 128.492213,18.6942299 128.492213,20.9069149 C128.492213,23.0877373 127.823603,24.9216106 126.482842,26.3468326" id="Fill-4" fill="#FFFFFF"></path>
                <path d="M139.20702,21.0516118 C140.023311,22.0393544 141.303381,23.5515666 143.078587,25.6196053 C143.429076,26.0854071 143.605079,26.5223808 143.605079,26.960366 C143.605079,27.8054852 142.876284,28.5297286 142.059993,28.5297286 C141.477361,28.5297286 140.984755,28.269264 140.576103,27.7741283 L137.113188,23.6102344 L133.677583,27.7463117 C133.24061,28.269264 132.774302,28.5297286 132.277649,28.5297286 C131.438599,28.5297286 130.677941,27.7463117 130.677941,26.8415132 C130.677941,26.4358964 130.825116,26.0565789 131.115421,25.7354235 L135.018344,21.0516118 L130.912106,16.2180962 C130.535318,15.7229605 130.329981,15.2278248 130.329981,14.7326891 C130.329981,14.2375535 130.564146,13.8026028 131.028431,13.4839762 C131.289401,13.3054441 131.550371,13.2184539 131.871527,13.2184539 C132.424319,13.2184539 132.921983,13.4839762 133.356934,13.97456 L137.113188,18.5177714 L140.867925,13.97456 C141.274553,13.4839762 141.741366,13.2184539 142.293653,13.2184539 C143.137255,13.2184539 143.895384,14.0054112 143.895384,14.8490132 C143.895384,15.2278248 143.779565,15.5778084 143.516066,15.8989638 L139.20702,21.0516118 Z" id="Fill-6" fill="#FFFFFF"></path>
                <path d="M62.4950255,28.5031258 L61.6817689,28.5031258 C60.1938331,28.5031258 59.0341332,27.9766332 58.1596801,26.9019005 C57.401551,25.940963 57.0272911,24.7468717 57.0272911,23.3196266 L57.0272911,16.3052887 L56.2661275,16.3052887 C55.1013701,16.3052887 54.521773,15.8389811 54.521773,14.9088947 C54.521773,13.9742566 55.3365469,13.3056464 56.2661275,13.3056464 L57.0272911,13.3056464 L57.0272911,10.0156998 C57.0272911,9.05880839 57.7227064,8.24201151 58.6254819,8.24201151 C59.5247171,8.24201151 60.2231669,9.05880839 60.2231669,10.0156998 L60.2231669,13.3056464 L62.3503791,13.3056464 C63.2804655,13.3056464 64.0967566,13.9742566 64.0967566,14.9088947 C64.0967566,15.8389811 63.5146308,16.3052887 62.3503791,16.3052887 L60.1938331,16.3052887 L60.1938331,22.9696431 C60.1938331,24.5713742 60.9524679,25.3876653 62.4950255,25.4185164 C63.2804655,25.4453215 64.0967566,26.0269416 64.0967566,26.8705436 C64.0967566,27.7743306 63.4281464,28.5031258 62.4950255,28.5031258" id="Fill-8" fill="#FFFFFF"></path>
                <path d="M76.0027722,17.6726016 C75.3311275,16.7693203 74.430375,16.3050358 73.3242854,16.3050358 C72.21769,16.3050358 71.313903,16.7693203 70.6169704,17.6726016 C69.9468429,18.5758828 69.5948363,19.6824782 69.5948363,21.0202044 C69.5948363,23.6986912 71.0822664,25.4744025 73.3242854,25.4744025 C75.5657985,25.4744025 77.0481711,23.6986912 77.0481711,21.0202044 C77.0481711,19.6824782 76.701222,18.5758828 76.0027722,17.6726016 M78.3312755,26.3468326 C77.0203544,27.7740777 75.3311275,28.5033787 73.3242854,28.5033787 C71.313903,28.5033787 69.6256875,27.7740777 68.2879613,26.3468326 C66.9785576,24.9216106 66.3089359,23.0877373 66.3089359,20.9069149 C66.3089359,18.6942299 66.9785576,16.8588392 68.2879613,15.4310884 C69.6256875,13.9745095 71.313903,13.2497603 73.3242854,13.2497603 C75.3311275,13.2497603 77.0203544,13.9745095 78.3312755,15.4310884 C79.6695074,16.8588392 80.3381176,18.6942299 80.3381176,20.9069149 C80.3381176,23.0877373 79.6695074,24.9216106 78.3312755,26.3468326" id="Fill-10" fill="#FFFFFF"></path>
                <path d="M89.5055625,20.9069149 L94.252088,25.6488886 C94.6865329,26.0853565 94.8893413,26.5228359 94.8893413,27.0174659 C94.8893413,27.8615736 94.1913972,28.529678 93.3488067,28.529678 C92.8819934,28.529678 92.4450197,28.3567093 92.0682311,27.9768861 L86.8579268,22.7089256 L86.8290987,26.6963104 C86.8290987,27.7159157 86.1883051,28.5033787 85.2248388,28.5033787 C84.2639013,28.5033787 83.5947854,27.7159157 83.5947854,26.6963104 L83.5947854,7.04918462 C83.5947854,6.03210814 84.2947525,5.30078413 85.2248388,5.30078413 C86.1574539,5.30078413 86.8579268,6.03210814 86.8579268,7.04918462 L86.8579268,18.2258993 L87.3222113,18.6942299 L92.2715452,13.7403442 C92.679185,13.3655785 93.1141357,13.1602414 93.5804433,13.1602414 C94.3987574,13.1602414 95.0946785,13.8293573 95.0946785,14.6749823 C95.0946785,15.109933 94.8893413,15.5469067 94.5150814,15.9282471 L89.5055625,20.9069149 Z" id="Fill-12" fill="#FFFFFF"></path>
                <path d="M101.088096,21.0200021 C101.088096,23.6989947 102.597274,25.474706 104.839293,25.474706 C107.082323,25.474706 108.566719,23.6989947 108.566719,21.0200021 C108.566719,19.6822759 108.215724,18.5761863 107.520308,17.6723993 C106.849169,16.769118 105.944877,16.3053392 104.839293,16.3053392 L103.552142,16.3053392 L103.552142,13.2500637 L104.839293,13.2500637 C106.849169,13.2500637 108.536879,13.9743072 109.848306,15.4308861 C111.187044,16.8586369 111.855654,18.6940275 111.855654,20.9067126 C111.855654,23.0880407 111.187044,24.9214083 109.848306,26.3466303 C108.536879,27.7743812 106.849169,28.5031764 104.839293,28.5031764 C102.829416,28.5031764 101.140695,27.7743812 99.8054975,26.3466303 C98.4940707,24.9214083 97.8269778,23.0880407 97.8269778,20.9067126 L97.8269778,7.04898232 C97.8269778,6.03190584 98.5249219,5.30058183 99.4550082,5.30058183 C100.389646,5.30058183 101.088096,6.03190584 101.088096,7.04898232 L101.088096,21.0200021 Z" id="Fill-14" fill="#FFFFFF"></path>
                <path d="M151.042432,10.3341748 L151.272551,10.3341748 C151.539591,10.3341748 151.75656,10.2451616 151.75656,10.028192 C151.75656,9.83701604 151.616466,9.70956538 151.310483,9.70956538 C151.182527,9.70956538 151.094019,9.72220929 151.042432,9.73485321 L151.042432,10.3341748 Z M151.029788,11.5201739 L150.545779,11.5201739 L150.545779,9.42887048 C150.736955,9.39093873 151.003995,9.36514515 151.348921,9.36514515 C151.743917,9.36514515 151.922449,9.42887048 152.075187,9.51838939 C152.189994,9.60790831 152.279513,9.77329071 152.279513,9.97761637 C152.279513,10.2067241 152.100981,10.3857619 151.846079,10.4621312 L151.846079,10.4869132 C152.049394,10.5637882 152.165212,10.7165267 152.228431,10.9972216 C152.292157,11.316354 152.330594,11.4432989 152.38117,11.5201739 L151.858218,11.5201739 C151.794998,11.4432989 151.75656,11.2521229 151.692835,11.0098655 C151.654903,10.7802521 151.526947,10.678595 151.259402,10.678595 L151.029788,10.678595 L151.029788,11.5201739 Z M149.742132,10.4236937 C149.742132,11.3547915 150.430467,12.0937019 151.373703,12.0937019 C152.292157,12.0937019 152.967847,11.3547915 152.967847,10.4363376 C152.967847,9.50574548 152.292157,8.75317969 151.361565,8.75317969 C150.430467,8.75317969 149.742132,9.50574548 149.742132,10.4236937 L149.742132,10.4236937 Z M153.503444,10.4236937 C153.503444,11.6096928 152.572852,12.540285 151.361565,12.540285 C150.163427,12.540285 149.206536,11.6096928 149.206536,10.4236937 C149.206536,9.26298232 150.163427,8.33239021 151.361565,8.33239021 C152.572852,8.33239021 153.503444,9.26298232 153.503444,10.4236937 L153.503444,10.4236937 Z" id="Fill-16" fill="#FFFFFF"></path>
            </g>
        </g>
    </g>
</svg>